name rise30.2954peak35.7071fall66.7804.mot
datacolumns 19
datarows 11
range 11.12329000000000 11.13995700000000
endheader
time	ground_force1_vx	ground_force1_vy	ground_force1_vz	ground_force1_px	ground_force1_py	ground_force1_pz	ground_force2_vx	ground_force2_vy	ground_force2_vz	ground_force2_px	ground_force2_py	ground_force2_pz	ground_torque1_x	ground_torque1_y	ground_torque1_z	ground_torque2_x	ground_torque2_y	ground_torque2_z	
11.12329000000000	-42.37969400000000	799.28942600000005	52.56851100000000	0.14594500000000	0.00000000000000	0.15217800000000	-4.02438000000000	21.04494300000000	5.42399300000000	0.00000000000000	0.00000000000000	0.00000000000000	0.00000000000000	28.42655300000000	0.00000000000000	0.00000000000000	1.98996600000000	0.00000000000000	
11.12496100000000	-42.74843800000000	797.23111900000004	52.43877600000000	0.14510600000000	0.00000000000000	0.15210400000000	-4.87266500000000	26.79665900000000	6.70641800000000	0.32918900000000	0.00000000000000	-0.03633500000000	0.00000000000000	28.37052900000000	0.00000000000000	0.00000000000000	4.49958000000000	0.00000000000000	
11.12662500000000	-43.13156800000000	795.08306300000004	52.29650700000000	0.14427200000000	0.00000000000000	0.15202600000000	-5.69974700000000	32.90568400000000	8.00887600000000	0.33434800000000	0.00000000000000	-0.03685400000000	0.00000000000000	28.31554400000000	0.00000000000000	0.00000000000000	5.42596700000000	0.00000000000000	
11.12829200000000	-43.52934500000000	792.84406100000001	52.14142900000000	0.14344400000000	0.00000000000000	0.15194500000000	-6.47413800000000	39.24798400000000	9.29275300000000	0.33914300000000	0.00000000000000	-0.03733000000000	0.00000000000000	28.26174100000000	0.00000000000000	0.00000000000000	6.35390900000000	0.00000000000000	
11.12996700000000	-43.94198300000000	790.51285800000005	51.97326400000000	0.14262300000000	0.00000000000000	0.15186100000000	-7.16726200000000	45.70294100000000	10.52202500000000	0.34362500000000	0.00000000000000	-0.03776900000000	0.00000000000000	28.20925700000000	0.00000000000000	0.00000000000000	7.25807600000000	0.00000000000000	
11.13162800000000	-44.36965400000000	788.08814299999995	51.79173200000000	0.14180900000000	0.00000000000000	0.15177200000000	-7.75530500000000	52.16243500000000	11.66569100000000	0.34783900000000	0.00000000000000	-0.03817600000000	0.00000000000000	28.15821100000000	0.00000000000000	0.00000000000000	8.11606300000000	0.00000000000000	
11.13329500000000	-44.81247700000000	785.56855199999995	51.59655500000000	0.14100400000000	0.00000000000000	0.15168000000000	-8.22047000000000	58.53780700000000	12.69951900000000	0.35181800000000	0.00000000000000	-0.03855700000000	0.00000000000000	28.10871200000000	0.00000000000000	0.00000000000000	8.90972700000000	0.00000000000000	
11.13495900000000	-45.27052400000000	782.95266900000001	51.38745300000000	0.14020800000000	0.00000000000000	0.15158300000000	-8.55157900000000	64.76424600000000	13.60699800000000	0.35558900000000	0.00000000000000	-0.03891400000000	0.00000000000000	28.06085200000000	0.00000000000000	0.00000000000000	9.62599400000000	0.00000000000000	
11.13663200000000	-45.74381400000000	780.23902599999997	51.16414700000000	0.13942300000000	0.00000000000000	0.15148300000000	-8.74403700000000	70.80252700000000	14.37951100000000	0.35917600000000	0.00000000000000	-0.03925200000000	0.00000000000000	28.01471100000000	0.00000000000000	0.00000000000000	10.25714100000000	0.00000000000000	
11.13829400000000	-46.23231000000000	777.42611199999999	50.92636000000000	0.13864900000000	0.00000000000000	0.15137800000000	-8.79927400000000	76.63836000000001	15.01583100000000	0.36259700000000	0.00000000000000	-0.03957300000000	0.00000000000000	27.97035000000000	0.00000000000000	0.00000000000000	10.80057900000000	0.00000000000000	
11.13995700000000	-46.73592100000000	774.51236700000004	50.67381700000000	0.13788600000000	0.00000000000000	0.15126900000000	-8.72378800000000	82.27979300000000	15.52110100000000	0.36586700000000	0.00000000000000	-0.03987800000000	0.00000000000000	27.92781200000000	0.00000000000000	0.00000000000000	11.25826600000000	0.00000000000000	
